<?xml version="1.0" encoding="UTF-8" standalone="no"?>
<!DOCTYPE svg PUBLIC "-//W3C//DTD SVG 1.1//EN" "http://www.w3.org/Graphics/SVG/1.1/DTD/svg11.dtd">
<svg width="100%" height="100%" viewBox="0 0 300 300" version="1.1" xmlns="http://www.w3.org/2000/svg" xmlns:xlink="http://www.w3.org/1999/xlink" xml:space="preserve" xmlns:serif="http://www.serif.com/" style="fill-rule:evenodd;clip-rule:evenodd;stroke-linejoin:round;stroke-miterlimit:2;">
    <g transform="matrix(1.07537,0,0,1.07537,-1.73387,1.41319)">
        <circle cx="141.099" cy="138.173" r="139.487" style="fill:rgb(170,170,170);"/>
    </g>
    <g id="email-svgrepo-com.svg" transform="matrix(0.28125,0,0,0.28125,150,150)">
        <g transform="matrix(1,0,0,1,-400,-400)">
            <path d="M733.333,166.667L733.333,300L400,433.333L66.667,300L66.667,166.667C66.667,148.381 81.714,133.333 100,133.333L700,133.333C718.286,133.333 733.333,148.381 733.333,166.667ZM66.667,371.8L66.667,633.333C66.667,651.619 81.714,666.667 100,666.667L700,666.667C718.286,666.667 733.333,651.619 733.333,633.333L733.333,371.8L400,505.133L66.667,371.8Z" style="fill:white;fill-rule:nonzero;"/>
        </g>
    </g>
</svg>
