<?xml version="1.0" encoding="UTF-8" standalone="no"?>
<!DOCTYPE svg PUBLIC "-//W3C//DTD SVG 1.1//EN" "http://www.w3.org/Graphics/SVG/1.1/DTD/svg11.dtd">
<svg width="100%" height="100%" viewBox="0 0 300 300" version="1.1" xmlns="http://www.w3.org/2000/svg" xmlns:xlink="http://www.w3.org/1999/xlink" xml:space="preserve" xmlns:serif="http://www.serif.com/" style="fill-rule:evenodd;clip-rule:evenodd;stroke-linejoin:round;stroke-miterlimit:2;">
    <g transform="matrix(1.07537,0,0,1.07537,-1.73387,1.41319)">
        <circle cx="141.099" cy="138.173" r="139.487" style="fill:rgb(170,170,170);"/>
    </g>
    <g id="linkedin-svgrepo-com.svg" transform="matrix(0.1875,0,0,0.1875,150,150)">
        <g transform="matrix(1,0,0,1,-400,-400)">
            <g id="_7935ec95c421cee6d86eb22ecd125aef" serif:id="7935ec95c421cee6d86eb22ecd125aef">
                <path d="M182.038,781.592L182.038,266.647L10.898,266.647L10.898,781.591L182.038,781.591L182.038,781.592ZM96.486,196.366C156.147,196.366 193.311,156.791 193.311,107.377C192.183,56.864 156.147,18.406 97.605,18.406C39.053,18.408 0.781,56.866 0.781,107.378C0.781,156.792 37.925,196.367 95.359,196.367L96.486,196.367L96.486,196.366ZM276.756,781.592C276.756,781.592 279.002,314.963 276.756,266.648L447.922,266.648L447.922,341.327L446.786,341.327C469.292,306.186 509.839,254.556 602.161,254.556C714.794,254.556 799.217,328.155 799.217,486.327L799.217,781.594L628.08,781.594L628.08,506.112C628.08,436.892 603.317,389.658 541.366,389.658C494.094,389.658 465.922,421.502 453.55,452.283C449.023,463.239 447.922,478.628 447.922,494.019L447.922,781.592L276.756,781.592Z" style="fill:white;"/>
            </g>
        </g>
    </g>
</svg>
