<?xml version="1.0" encoding="UTF-8" standalone="no"?>
<!DOCTYPE svg PUBLIC "-//W3C//DTD SVG 1.1//EN" "http://www.w3.org/Graphics/SVG/1.1/DTD/svg11.dtd">
<svg width="100%" height="100%" viewBox="0 0 300 300" version="1.1" xmlns="http://www.w3.org/2000/svg" xmlns:xlink="http://www.w3.org/1999/xlink" xml:space="preserve" xmlns:serif="http://www.serif.com/" style="fill-rule:evenodd;clip-rule:evenodd;stroke-linejoin:round;stroke-miterlimit:2;">
    <g transform="matrix(1.07537,0,0,1.07537,-1.73387,1.41319)">
        <circle cx="141.099" cy="138.173" r="139.487" style="fill:rgb(170,170,170);"/>
    </g>
    <g id="twitter-svgrepo-com.svg" transform="matrix(0.375,0,0,0.375,152.628,163.141)">
        <g transform="matrix(1,0,0,1,-400,-400)">
            <path d="M297.975,623.5C234.275,623.5 174.95,604.825 125,572.7C184.642,579.944 244.779,563.139 292.025,526.025C243.853,525.143 201.324,493.491 186.65,447.6C193.55,448.95 200.625,449.65 207.85,449.65C218.15,449.65 228.15,448.25 237.675,445.75C185.231,435.129 147.173,388.634 147.125,335.125L147.125,333.65C162.768,342.365 180.276,347.201 198.175,347.75C166.791,326.84 147.914,291.512 147.975,253.8C147.975,233.2 153.6,213.75 163.275,197.1C220.545,267.563 305.161,310.449 395.85,314.975C393.903,306.595 392.92,298.02 392.92,289.417C392.92,227.468 443.896,176.492 505.845,176.492C537.005,176.492 566.816,189.389 588.15,212.1C613.408,207.1 637.635,197.852 659.8,184.75C651.37,210.868 633.749,233.064 610.225,247.2C632.586,244.53 654.425,238.548 675.025,229.45C659.835,252.08 640.777,271.857 618.725,287.875C618.925,292.7 619.075,297.575 619.075,302.45C619.05,451.5 505.525,623.525 297.975,623.5" style="fill:white;fill-rule:nonzero;"/>
        </g>
    </g>
</svg>
